<?xml version="1.0" encoding="utf-8"?>
<!-- Generator: Adobe Illustrator 17.0.0, SVG Export Plug-In . SVG Version: 6.00 Build 0)  -->
<!DOCTYPE svg PUBLIC "-//W3C//DTD SVG 1.1//EN" "http://www.w3.org/Graphics/SVG/1.1/DTD/svg11.dtd">
<svg version="1.1" id="Layer_1" xmlns="http://www.w3.org/2000/svg" xmlns:xlink="http://www.w3.org/1999/xlink" x="0px" y="0px"
	 width="100px" height="100px" viewBox="0 0 100 100" enable-background="new 0 0 100 100" xml:space="preserve">
<path d="M75.767,37.168v-2h-8.813v-8.813h-2v8.813h-7.737v-8.813h-2v8.813h-7.737v-8.813h-2v8.813h-7.737v-8.813h-2v8.813h-8.813v2
	h8.813v7.737h-8.813v2h8.813v7.737h-8.813v2h8.813v7.737h-8.813v2h8.813v8.712h2V66.38h7.737v8.813h2V66.38h7.737v8.712h2V66.38
	h7.737v8.813h2V66.38h8.712v-2h-8.712v-7.737h8.813v-2h-8.813v-7.737h8.712v-2h-8.712v-7.737H75.767z M55.216,37.168v7.737h-7.737
	v-7.737H55.216z M55.216,46.905v7.737h-7.737v-7.737H55.216z M37.742,37.168h7.737v7.737h-7.737V37.168z M37.742,46.905h7.737v7.737
	h-7.737V46.905z M37.742,64.38v-7.737h7.737v7.737H37.742z M47.479,64.38v-7.737h7.737v7.737H47.479z M64.953,64.38h-7.737v-7.737
	h7.737V64.38z M64.953,54.643h-7.737v-7.737h7.737V54.643z M64.953,44.905h-7.737v-7.737h7.737V44.905z"/>
</svg>
