<?xml version="1.0" encoding="utf-8"?>
<!-- Generator: Adobe Illustrator 17.0.0, SVG Export Plug-In . SVG Version: 6.00 Build 0)  -->
<!DOCTYPE svg PUBLIC "-//W3C//DTD SVG 1.1//EN" "http://www.w3.org/Graphics/SVG/1.1/DTD/svg11.dtd">
<svg version="1.1" id="Layer_1" xmlns="http://www.w3.org/2000/svg" xmlns:xlink="http://www.w3.org/1999/xlink" x="0px" y="0px"
	 width="100px" height="100px" viewBox="0 0 100 100" enable-background="new 0 0 100 100" xml:space="preserve">
<path d="M94.819,48.659L77.415,38.399l17.47-12.207c0.268-0.187,0.427-0.492,0.427-0.819c0-0.326-0.159-0.633-0.427-0.819
	L69.317,6.679c-0.344-0.241-0.801-0.241-1.146,0L50,19.375L31.83,6.678c-0.346-0.24-0.803-0.241-1.146,0L5.116,24.553
	c-0.268,0.187-0.427,0.493-0.427,0.819c0,0.327,0.159,0.633,0.427,0.819l17.469,12.207L5.181,48.659
	c-0.293,0.173-0.479,0.482-0.491,0.822c-0.014,0.341,0.147,0.664,0.426,0.858l18.316,12.805v11.278c0,0.324,0.157,0.629,0.423,0.816
	l25.567,18.079c0.017,0.012,0.037,0.016,0.055,0.027c0.022,0.013,0.039,0.032,0.062,0.044c0.034,0.018,0.071,0.026,0.106,0.04
	c0.028,0.011,0.055,0.023,0.083,0.031c0.089,0.025,0.179,0.041,0.27,0.041c0.091,0,0.182-0.016,0.271-0.042
	c0.028-0.008,0.055-0.02,0.082-0.031c0.036-0.014,0.072-0.022,0.107-0.04c0.023-0.012,0.04-0.031,0.062-0.044
	c0.018-0.011,0.038-0.015,0.055-0.027L76.144,75.24c0.266-0.188,0.423-0.492,0.423-0.816V63.146L94.884,50.34
	c0.278-0.194,0.439-0.518,0.426-0.858C95.297,49.142,95.112,48.832,94.819,48.659z M48.152,56.273l-16.85,9.935l-5.87-4.104V40.389
	l13.594,9.503L48.152,56.273z M50,21.816L65.597,32.72l8.086,5.653L50,55.12L26.316,38.373l8.086-5.653L50,21.816z M60.973,49.892
	l13.594-9.503v21.715l-5.869,4.103l-16.851-9.935L60.973,49.892z M68.744,8.718l23.822,16.654L75.567,37.25L51.745,20.595
	L68.744,8.718z M31.256,8.718l16.998,11.877L24.432,37.25L7.434,25.372L31.256,8.718z M7.537,49.592l15.896-9.372v20.485
	L7.537,49.592z M25.432,64.543l5.251,3.671c0.172,0.12,0.372,0.181,0.573,0.181c0.175,0,0.351-0.046,0.508-0.139L49,58.094v32.476
	L25.432,73.906V64.543z M74.567,73.906L51,90.571V58.094l17.236,10.162c0.157,0.093,0.333,0.139,0.508,0.139
	c0.201,0,0.401-0.061,0.573-0.181l5.25-3.67V73.906z M76.567,60.706V40.22l15.896,9.372L76.567,60.706z"/>
</svg>
