<?xml version="1.0" encoding="utf-8"?>
<!-- Generator: Adobe Illustrator 17.0.0, SVG Export Plug-In . SVG Version: 6.00 Build 0)  -->
<!DOCTYPE svg PUBLIC "-//W3C//DTD SVG 1.1//EN" "http://www.w3.org/Graphics/SVG/1.1/DTD/svg11.dtd">
<svg version="1.1" id="Layer_1" xmlns="http://www.w3.org/2000/svg" xmlns:xlink="http://www.w3.org/1999/xlink" x="0px" y="0px"
	 width="100px" height="100px" viewBox="0 0 100 100" enable-background="new 0 0 100 100" xml:space="preserve">
<path d="M84.77,42.666l-1.414-1.414l-6.204,6.205c-1.078-16.123-14.53-28.913-30.922-28.913c-17.094,0-31,13.907-31,31
	c0,17.094,13.906,31,31,31c9.027,0,17.589-3.925,23.489-10.769l-1.516-1.307c-5.52,6.403-13.528,10.075-21.974,10.075
	c-15.99,0-29-13.01-29-29c0-15.991,13.01-29,29-29c15.228,0,27.744,11.802,28.903,26.738l-5.363-5.363l-1.414,1.414l7.167,7.167
	h1.414L84.77,42.666z"/>
</svg>
