<?xml version="1.0" encoding="utf-8"?>
<!-- Generator: Adobe Illustrator 16.0.0, SVG Export Plug-In . SVG Version: 6.00 Build 0)  -->
<!DOCTYPE svg PUBLIC "-//W3C//DTD SVG 1.1//EN" "http://www.w3.org/Graphics/SVG/1.1/DTD/svg11.dtd">
<svg version="1.1" id="Layer_1" xmlns="http://www.w3.org/2000/svg" xmlns:xlink="http://www.w3.org/1999/xlink" x="0px" y="0px"
	 width="100px" height="100px" viewBox="0 0 100 100" enable-background="new 0 0 100 100" xml:space="preserve">
<path d="M79,64.293c0.068-0.126,0.131-0.256,0.196-0.384c0.149-0.286,0.298-0.573,0.437-0.865c0.093-0.194,0.178-0.393,0.267-0.589
	c0.105-0.233,0.213-0.466,0.312-0.703c0.097-0.231,0.186-0.467,0.276-0.701c0.082-0.21,0.167-0.42,0.244-0.633
	c0.089-0.244,0.169-0.491,0.251-0.738c0.07-0.211,0.144-0.42,0.209-0.633c0.073-0.239,0.138-0.481,0.205-0.723
	c0.063-0.227,0.131-0.452,0.188-0.682c0.058-0.225,0.105-0.452,0.157-0.679c0.058-0.249,0.117-0.497,0.168-0.749
	c0.042-0.207,0.074-0.416,0.112-0.624c0.049-0.274,0.101-0.548,0.142-0.824c0.028-0.187,0.048-0.375,0.072-0.563
	c0.039-0.299,0.081-0.598,0.11-0.9c0.018-0.181,0.027-0.363,0.042-0.545c0.024-0.309,0.052-0.615,0.067-0.926
	c0.014-0.282,0.016-0.565,0.021-0.849c0.004-0.204,0.016-0.407,0.016-0.613c0-0.005,0-0.011,0-0.017s0-0.011,0-0.017
	c0-14.234-10.031-26.139-23.562-28.906c-0.018-0.003-0.035-0.008-0.053-0.012c-0.39-0.079-0.783-0.147-1.179-0.211
	c-0.11-0.018-0.22-0.039-0.331-0.056c-0.313-0.047-0.631-0.084-0.947-0.121c-0.186-0.022-0.37-0.047-0.557-0.066
	c-0.271-0.026-0.544-0.043-0.816-0.062c-0.227-0.016-0.451-0.037-0.68-0.047c-0.03-0.001-0.061-0.005-0.092-0.006l-1.771-0.08
	l0.033,0.06c-7.146,0.097-13.684,2.74-18.75,7.064l0.064-0.324l-2.39,2.535c-0.007,0.007-0.013,0.015-0.02,0.022
	c-0.312,0.331-0.615,0.669-0.912,1.014c-0.009,0.011-0.018,0.021-0.027,0.032c-0.292,0.34-0.575,0.687-0.851,1.041
	c-0.017,0.022-0.035,0.044-0.052,0.066c-0.26,0.334-0.512,0.674-0.758,1.02c-0.033,0.047-0.066,0.093-0.1,0.14
	c-0.224,0.32-0.441,0.644-0.653,0.973c-0.05,0.078-0.1,0.155-0.149,0.232c-0.189,0.3-0.373,0.604-0.552,0.912
	c-0.065,0.111-0.129,0.222-0.192,0.333c-0.158,0.28-0.311,0.562-0.46,0.847c-0.076,0.144-0.149,0.289-0.223,0.434
	c-0.13,0.259-0.256,0.52-0.379,0.784c-0.082,0.176-0.161,0.352-0.24,0.529c-0.106,0.241-0.209,0.482-0.31,0.726
	c-0.084,0.205-0.165,0.412-0.244,0.619c-0.085,0.223-0.17,0.447-0.25,0.672c-0.083,0.232-0.161,0.466-0.238,0.701
	c-0.068,0.208-0.136,0.415-0.199,0.625c-0.079,0.26-0.151,0.521-0.223,0.783c-0.052,0.189-0.104,0.379-0.152,0.57
	c-0.073,0.289-0.138,0.58-0.202,0.872c-0.038,0.17-0.077,0.34-0.111,0.512c-0.064,0.322-0.12,0.645-0.173,0.969
	c-0.024,0.147-0.052,0.293-0.074,0.441c-0.055,0.362-0.099,0.727-0.139,1.092c-0.013,0.115-0.03,0.229-0.041,0.344
	c-0.043,0.431-0.075,0.864-0.099,1.298c-0.003,0.054-0.009,0.108-0.012,0.163c-0.024,0.489-0.038,0.979-0.038,1.472
	c0,0.005,0,0.01,0,0.015c0,0.005,0,0.01,0,0.016c0,16.295,13.257,29.552,29.552,29.552c10.769,0,20.207-5.793,25.372-14.423
	c0.009-0.015,0.017-0.029,0.025-0.044C78.568,65.073,78.789,64.687,79,64.293z M80.46,51.73c-0.015,0.298-0.041,0.594-0.065,0.89
	c-0.013,0.16-0.021,0.321-0.037,0.48c-0.029,0.297-0.069,0.591-0.108,0.886c-0.021,0.158-0.037,0.317-0.061,0.476
	c-0.042,0.279-0.094,0.556-0.144,0.833c-0.031,0.171-0.059,0.344-0.093,0.514c-0.052,0.261-0.114,0.52-0.174,0.777
	c-0.043,0.184-0.081,0.369-0.127,0.551c-0.062,0.246-0.134,0.489-0.203,0.733c-0.054,0.19-0.104,0.382-0.162,0.57
	c-0.074,0.239-0.156,0.477-0.236,0.714c-0.063,0.188-0.123,0.376-0.19,0.561c-0.09,0.249-0.188,0.494-0.285,0.74
	c-0.065,0.166-0.129,0.334-0.197,0.499c-0.117,0.281-0.243,0.558-0.37,0.835c-0.056,0.122-0.109,0.246-0.167,0.367
	c-0.164,0.346-0.338,0.688-0.518,1.027c-0.023,0.044-0.045,0.089-0.068,0.133c-1.266,2.36-2.887,4.548-4.835,6.497
	c-5.209,5.21-12.125,8.079-19.473,8.079c-15.188,0-27.546-12.353-27.554-27.538c0-0.021,0.001-0.042,0.001-0.064
	c0.001-0.654,0.034-1.304,0.081-1.952c0.012-0.159,0.022-0.317,0.036-0.475c0.058-0.636,0.136-1.268,0.237-1.895
	c0.022-0.141,0.05-0.28,0.075-0.421c0.106-0.596,0.228-1.189,0.373-1.775c0.018-0.07,0.031-0.143,0.049-0.213
	c0.165-0.643,0.357-1.278,0.568-1.906c0.039-0.117,0.078-0.235,0.119-0.352c0.221-0.632,0.462-1.256,0.729-1.871
	c0.027-0.061,0.056-0.121,0.083-0.182c0.585-1.319,1.274-2.595,2.066-3.815c0.012-0.019,0.024-0.038,0.036-0.056
	c0.408-0.625,0.841-1.236,1.302-1.831c0.084,0.487,0.218,0.96,0.401,1.418c0.985,2.464,1.304,3.105,1.613,3.725
	c0.302,0.606,0.587,1.18,1.548,3.598c1.056,2.652,2.652,3.888,5.021,3.888c0.482,0,0.941-0.044,1.386-0.087
	c0.617-0.061,1.256-0.109,1.665-0.02c1.313,0.289,2.201,0.861,2.915,1.32c0.403,0.26,0.752,0.484,1.113,0.605
	c0.539,0.18,2.316,0.92,2.549,2.906c0.164,1.387,0.046,1.471-0.72,2.017c-0.269,0.191-0.572,0.408-0.905,0.693
	c-1.354,1.156-0.935,2.548-0.629,3.563c0.178,0.592,0.346,1.15,0.284,1.73c-0.2,1.888,1.421,2.247,2.724,2.535
	c1.163,0.258,2.757,0.611,4.504,1.812c1.443,0.992,1.615,1.533,1.634,1.676c0.032,0.258-0.291,0.63-0.633,1.024
	c-0.29,0.333-0.617,0.711-0.841,1.155c-0.097,0.195-0.182,0.363-0.961,0.363c-0.361,0-0.771-0.035-1.232-0.072
	c-0.648-0.052-1.384-0.111-2.232-0.111c-0.528,0-1.93,0-2.233,1.105c-0.217,0.792,0.313,1.591,1.579,2.376
	c0.415,0.461,1.744,1.73,3.417,1.434c0.313-0.054,0.657-0.107,1.018-0.164c1.329-0.209,2.836-0.445,4.045-0.852
	c0.516-0.173,1.075-0.423,1.668-0.688c1.222-0.545,2.605-1.164,4.305-1.474c1.83-0.332,3.536-2.458,5.342-4.709
	c1.346-1.678,2.738-3.412,4.038-4.212c2.953-1.817,2.487-3.771,2.147-5.197c-0.107-0.449-0.208-0.873-0.208-1.27
	c0-1.777-1.255-1.867-1.506-1.867c-0.479,0-0.95,0.205-1.449,0.423c-0.477,0.208-1.019,0.444-1.462,0.444
	c-1.408,0-2.148-0.105-4.951-2.599c-2.103-1.875-2.415-2.064-3.398-2.564c-0.341-0.173-0.782-0.397-1.484-0.805
	c-1.378-0.802-2.988-1.191-4.921-1.191c-0.517,0-0.988,0.026-1.393,0.049c-0.27,0.015-0.506,0.029-0.699,0.029
	c-0.972,0-5.213-0.426-8.22-2.508c-1.262-0.874-4.06-2.812-4.183-3.743c0.54,0.206,1.439,0.196,2.379,0.169
	c0.397-0.012,0.801-0.023,1.193-0.023c1.251,0,1.814,0.146,2.068,0.284c-0.016,0.086-0.035,0.184-0.051,0.26
	c-0.116,0.565-0.275,1.339,0.281,1.895c0.759,0.761,2.144,0.874,2.902,0.874c0.481,0,2.121-0.059,3.011-0.815
	c0.655-0.552,0.704-1.436,0.747-2.215c0.02-0.351,0.039-0.714,0.108-0.993c0.155-0.616,0.102-1.274,0.04-2.037
	c-0.063-0.773-0.134-1.649-0.018-2.716c0.194-0.11,0.377-0.277,0.547-0.501c0.23-0.304,1.021-0.603,1.784-0.891
	c0.867-0.328,1.851-0.699,2.822-1.306l0.261-0.163c1.61-1.003,2.02-1.334,1.742-3.012c-0.023-0.146-0.051-0.311-0.078-0.5
	c-0.032-0.226-0.055-0.414-0.069-0.567h3.631l-4.133-1.908c-0.333-0.154-3.288-1.512-4.309-1.768
	c-0.093-0.036-0.237-0.16-0.408-0.345c0.194,0.023,0.388,0.046,0.58,0.074c0.141,0.02,0.282,0.038,0.423,0.06
	c0.387,0.061,0.772,0.129,1.154,0.207c0.033,0.007,0.066,0.012,0.1,0.019c12.527,2.581,21.977,13.691,21.984,26.969
	c0,0.205-0.011,0.409-0.016,0.613C80.474,51.222,80.472,51.478,80.46,51.73z M56.162,25.307c0.53,0.133,2.084,0.797,3.28,1.334
	c0.007,0.324,0.044,0.731,0.118,1.256c0.03,0.207,0.06,0.386,0.086,0.543c0.023,0.145,0.05,0.303,0.062,0.408
	c-0.161,0.127-0.517,0.349-0.889,0.581l-0.264,0.164c-0.803,0.502-1.688,0.836-2.469,1.131c-0.873,0.33-1.653,0.625-2.244,1.116
	h-0.228c-0.926,0-1.006,0.718-1.139,1.908c-0.14,1.266-0.057,2.292,0.01,3.117c0.048,0.586,0.089,1.092,0.014,1.391
	c-0.115,0.464-0.142,0.944-0.165,1.367c-0.015,0.271-0.037,0.668-0.089,0.832c-0.22,0.135-0.844,0.309-1.672,0.309
	c-0.593,0-1.018-0.09-1.262-0.176c0.013-0.066,0.026-0.134,0.038-0.19c0.114-0.554,0.256-1.244-0.191-1.795
	c-0.818-1.015-2.373-1.152-3.785-1.152c-0.412,0-0.834,0.012-1.251,0.024c-0.386,0.011-0.767,0.022-1.128,0.022
	c-0.39,0-0.512-0.077-0.535-0.112c-0.243-0.358-0.557-0.54-0.932-0.54c-0.608,0-0.868,0.39-1.339,1.096
	c-1.575,2.359,1.584,4.62,4.474,6.623c-0.433-0.174-0.914-0.331-1.45-0.448c-0.639-0.141-1.446-0.099-2.288-0.018
	c-0.392,0.038-0.792,0.078-1.193,0.078c-1.023,0-2.197-0.203-3.162-2.627c-0.992-2.496-1.295-3.105-1.616-3.75
	c-0.291-0.584-0.591-1.188-1.546-3.576c-0.366-0.914-0.447-1.893-0.271-2.974c5.014-5.191,12.038-8.43,19.808-8.43
	c0.236,0,0.471,0.012,0.706,0.018C54.236,23.812,55.156,25.056,56.162,25.307z M58.233,64.675c-0.13-1.02-0.919-1.995-2.484-3.071
	c-2.067-1.421-3.955-1.839-5.204-2.115c-0.438-0.097-0.972-0.216-1.171-0.323c0-0.013,0.001-0.029,0.003-0.048
	c0.105-0.982-0.151-1.834-0.357-2.519c-0.321-1.064-0.29-1.208,0.014-1.468c0.281-0.241,0.539-0.423,0.765-0.584
	c1.15-0.819,1.829-1.49,1.546-3.879c-0.294-2.509-2.209-4.006-3.902-4.57c-0.042-0.014-0.106-0.046-0.181-0.089
	c2.875,1.23,5.892,1.546,6.941,1.546c0.225,0,0.498-0.015,0.812-0.032c0.371-0.021,0.805-0.046,1.28-0.046
	c1.592,0,2.836,0.292,3.916,0.92c0.749,0.435,1.22,0.674,1.583,0.859c0.795,0.405,0.984,0.501,2.974,2.275
	c2.986,2.656,4.188,3.105,6.282,3.105c0.861,0,1.638-0.339,2.262-0.611c0.053-0.022,0.109-0.047,0.166-0.072
	c0.036,0.512,0.149,0.988,0.252,1.417c0.312,1.312,0.47,1.972-1.25,3.03c-1.596,0.98-3.098,2.853-4.55,4.663
	c-1.428,1.779-3.045,3.795-4.141,3.994c-1.937,0.353-3.503,1.053-4.762,1.615c-0.571,0.255-1.064,0.475-1.49,0.617
	c-1.049,0.354-2.466,0.576-3.717,0.771c-0.371,0.059-0.725,0.114-1.047,0.17c-0.713,0.116-1.445-0.619-1.643-0.859l-0.056-0.069
	c0.484,0.021,0.934,0.057,1.346,0.09c0.521,0.042,0.985,0.078,1.394,0.078c0.552,0,2.015,0,2.75-1.467
	c0.109-0.22,0.329-0.473,0.562-0.74C57.655,66.654,58.38,65.821,58.233,64.675z"/>
</svg>
